<?xml version="1.0" encoding="utf-8"?>
<!-- Generator: Adobe Illustrator 22.0.1, SVG Export Plug-In . SVG Version: 6.00 Build 0)  -->
<svg version="1.1" id="Layer_1" xmlns="http://www.w3.org/2000/svg" xmlns:xlink="http://www.w3.org/1999/xlink" x="0px" y="0px"
	 viewBox="0 0 764.8 204.8" style="enable-background:new 0 0 764.8 204.8;" xml:space="preserve">
<style type="text/css">
	.st0{fill:none;stroke:#FFFFFF;stroke-width:13;stroke-miterlimit:10;}
	.st1{fill:#FFFFFF;}
	.st2{fill:none;stroke:#212529;stroke-width:13;stroke-miterlimit:10;}
	.st3{fill:#212529;}
	.st4{fill:none;stroke:#000000;stroke-width:13;stroke-miterlimit:10;}
</style>
<polygon class="st0" points="17.4,14.4 739.4,9.4 752.4,155.4 732.4,183.4 373.4,183.4 328.4,195.4 12.4,182.4 "/>
<g>
	<g>
		<path class="st1" d="M57.2,130.2V62.1h48.6v12.4H69.9v18.6h33.9V105H69.9v25.3H57.2z"/>
	</g>
	<g>
		<path class="st1" d="M182.8,129.9h-15.7l-20.4-23.1H134v23.1h-13.2V60.7c11.1,0,22.2,0.1,33.3,0.1c16.5,0.1,25.2,11,25.2,22.9
			c0,9.5-4.4,19.1-17.7,21.7l21.2,23.6V129.9z M134,72.9V95h20.1c8.4,0,12-5.5,12-11.1c0-5.5-3.7-11.1-12-11.1H134z"/>
	</g>
	<g>
		<path class="st1" d="M540.9,129.9h-15.7l-20.4-23.1h-12.7v23.1h-13.2V60.7c11.1,0,22.2,0.1,33.3,0.1c16.5,0.1,25.2,11,25.2,22.9
			c0,9.5-4.4,19.1-17.7,21.7l21.2,23.6V129.9z M492.1,72.9V95h20.1c8.4,0,12-5.5,12-11.1c0-5.5-3.7-11.1-12-11.1H492.1z"/>
	</g>
	<g>
		<path class="st1" d="M550.7,129.9V60.8h13.1v69.1H550.7z"/>
	</g>
	<g>
		<path class="st1" d="M242.3,129.9h-50.1c0-22.9,0-46,0-68.9h50.1v12.6h-37.6v15.9H241v12.1h-36.3v15.6h37.6V129.9z"/>
	</g>
	<g>
		<path class="st1" d="M301.9,77.6c-2.3-3.9-8.6-7.7-15.9-7.7c-9.4,0-13.9,4-13.9,9.2c0,6,6.9,7.7,14.9,8.7c14,1.8,27,5.5,27,22
			c0,15.4-13.2,22-28.1,22c-13.7,0-24.2-4.3-29.2-16.9l10.5-5.6c3,7.6,10.7,10.9,18.9,10.9c7.9,0,15.4-2.9,15.4-10.3
			c0-6.5-6.6-9.2-15.5-10.1c-13.7-1.7-26.3-5.4-26.3-20.9c0-14.2,13.6-20,25.9-20.1c10.4,0,21.2,3.1,26.3,13.7L301.9,77.6z"/>
	</g>
	<g>
		<path class="st1" d="M376.5,130v-27.9h-32.9V130h-12.6V61.1h12.6v29.1h32.9V61.1H389V130H376.5z"/>
	</g>
	<g>
		<path class="st1" d="M440.6,108.9h-19.8v20.6h-13.2v-70c11,0,22-0.1,33-0.1C474.8,59.4,474.9,108.9,440.6,108.9z M420.8,96.8h19.8
			c16.9,0,16.8-24.8,0-24.8h-19.8V96.8z"/>
	</g>
	<g>
		<path class="st1" d="M627.4,59.4h13.2v70.1h-8.2v0.1l-36.8-47.3v47.2h-13.2v-70h10.7l34.3,43.4V59.4z"/>
	</g>
	<g>
		<path class="st1" d="M673.8,71.5h-22.2v-12c20.2,0,37.3,0,57.6,0v12H687v58h-13.2V71.5z"/>
	</g>
</g>
<polygon class="st2" points="-782.3,14.4 -60.3,9.4 -47.3,155.4 -67.3,183.4 -426.3,183.4 -471.3,195.4 -787.3,182.4 "/>
<g>
	<g>
		<path class="st3" d="M-742.6,130.2V62.1h48.6v12.4h-35.9v18.6h33.9V105h-33.9v25.3H-742.6z"/>
	</g>
	<g>
		<path class="st3" d="M-616.9,129.9h-15.7l-20.4-23.1h-12.7v23.1h-13.2V60.7c11.1,0,22.2,0.1,33.3,0.1c16.5,0.1,25.2,11,25.2,22.9
			c0,9.5-4.4,19.1-17.7,21.7l21.2,23.6V129.9z M-665.7,72.9V95h20.1c8.4,0,12-5.5,12-11.1c0-5.5-3.7-11.1-12-11.1H-665.7z"/>
	</g>
	<g>
		<path class="st3" d="M-258.8,129.9h-15.7l-20.4-23.1h-12.7v23.1h-13.2V60.7c11.1,0,22.2,0.1,33.3,0.1c16.5,0.1,25.2,11,25.2,22.9
			c0,9.5-4.4,19.1-17.7,21.7l21.2,23.6V129.9z M-307.6,72.9V95h20.1c8.4,0,12-5.5,12-11.1c0-5.5-3.7-11.1-12-11.1H-307.6z"/>
	</g>
	<g>
		<path class="st3" d="M-249.1,129.9V60.8h13.1v69.1H-249.1z"/>
	</g>
	<g>
		<path class="st3" d="M-557.4,129.9h-50.1c0-22.9,0-46,0-68.9h50.1v12.6H-595v15.9h36.3v12.1H-595v15.6h37.6V129.9z"/>
	</g>
	<g>
		<path class="st3" d="M-497.8,77.6c-2.3-3.9-8.6-7.7-15.9-7.7c-9.4,0-13.9,4-13.9,9.2c0,6,6.9,7.7,14.9,8.7c14,1.8,27,5.5,27,22
			c0,15.4-13.2,22-28.1,22c-13.7,0-24.2-4.3-29.2-16.9l10.5-5.6c3,7.6,10.7,10.9,18.9,10.9c7.9,0,15.4-2.9,15.4-10.3
			c0-6.5-6.6-9.2-15.5-10.1c-13.7-1.7-26.3-5.4-26.3-20.9c0-14.2,13.6-20,25.9-20.1c10.4,0,21.2,3.1,26.3,13.7L-497.8,77.6z"/>
	</g>
	<g>
		<path class="st3" d="M-423.3,130v-27.9h-32.9V130h-12.6V61.1h12.6v29.1h32.9V61.1h12.5V130H-423.3z"/>
	</g>
	<g>
		<path class="st3" d="M-359.2,108.9H-379v20.6h-13.2v-70c11,0,22-0.1,33-0.1C-325,59.4-324.9,108.9-359.2,108.9z M-379,96.8h19.8
			c16.9,0,16.8-24.8,0-24.8H-379V96.8z"/>
	</g>
	<g>
		<path class="st3" d="M-172.3,59.4h13.2v70.1h-8.2v0.1l-36.8-47.3v47.2h-13.2v-70h10.7l34.3,43.4V59.4z"/>
	</g>
	<g>
		<path class="st3" d="M-125.9,71.5h-22.2v-12c20.2,0,37.3,0,57.6,0v12h-22.2v58h-13.2V71.5z"/>
	</g>
</g>
<polygon class="st4" points="-782.3,344.3 -60.3,339.3 -47.3,485.3 -67.3,513.3 -426.3,513.3 -471.3,525.3 -787.3,512.3 "/>
<g>
	<text transform="matrix(0.9912 0 0 1 -747.2899 460.1797)" style="font-family:'NexaBold'; font-size:97.5475px;">F</text>
	<text transform="matrix(1.0127 0 0 1 -683.8973 459.8116)" style="font-family:'NexaBold'; font-size:98.7429px;">R</text>
	<text transform="matrix(1.0127 0 0 1 -325.8457 459.8116)" style="font-family:'NexaBold'; font-size:98.7429px;">R</text>
	<text transform="matrix(1.0127 0 0 1 -254.0536 459.8116)" style="font-family:'NexaBold'; font-size:98.7429px;">I</text>
	<text transform="matrix(0.9715 0 0 1 -612.0526 459.8878)" style="font-family:'NexaBold'; font-size:98.4957px;">E</text>
	<text transform="matrix(0.9715 0 0 1 -543.8688 459.8878)" style="font-family:'NexaBold'; font-size:98.4957px;">S</text>
	<text transform="matrix(0.9715 0 0 1 -473.5966 459.8878)" style="font-family:'NexaBold'; font-size:98.4957px;">H</text>
	<text transform="matrix(1 0 0 1 -397.0774 459.4244)" style="font-family:'NexaBold'; font-size:100px;">P</text>
	<text transform="matrix(1 0 0 1 -223.2322 459.4244)" style="font-family:'NexaBold'; font-size:100px;">N</text>
	<text transform="matrix(1 0 0 1 -148.8945 459.4244)" style="font-family:'NexaBold'; font-size:100px;">T</text>
</g>
</svg>
